<svg width="100" height="100" viewBox="0 0 100 100" fill="none" xmlns="http://www.w3.org/2000/svg">
<path d="M18.75 18.7502C18.75 15.4349 20.067 12.2555 22.4112 9.91132C24.7554 7.56711 27.9348 6.25015 31.25 6.25015C34.5652 6.25015 37.7446 7.56711 40.0888 9.91132C42.433 12.2555 43.75 15.4349 43.75 18.7502C43.75 22.0654 42.433 25.2448 40.0888 27.589C37.7446 29.9332 34.5652 31.2502 31.25 31.2502C27.9348 31.2502 24.7554 29.9332 22.4112 27.589C20.067 25.2448 18.75 22.0654 18.75 18.7502ZM31.25 12.5002C29.5924 12.5002 28.0027 13.1586 26.8306 14.3307C25.6585 15.5028 25 17.0925 25 18.7502C25 20.4078 25.6585 21.9975 26.8306 23.1696C28.0027 24.3417 29.5924 25.0002 31.25 25.0002C32.9076 25.0002 34.4973 24.3417 35.6694 23.1696C36.8415 21.9975 37.5 20.4078 37.5 18.7502C37.5 17.0925 36.8415 15.5028 35.6694 14.3307C34.4973 13.1586 32.9076 12.5002 31.25 12.5002ZM61.1188 28.6502C59.8093 27.6514 58.7102 26.4037 57.8845 24.9788C57.0588 23.5539 56.5227 21.9798 56.3072 20.3471C56.0917 18.7144 56.201 17.0553 56.6287 15.4649C57.0564 13.8746 57.7942 12.3844 58.7996 11.0801C59.8051 9.77575 61.0583 8.68295 62.4874 7.86448C63.9165 7.046 65.4932 6.51799 67.127 6.31077C68.7607 6.10355 70.4193 6.22122 72.0075 6.65701C73.5956 7.0928 75.082 7.83812 76.3812 8.85015C78.9393 10.8964 80.5919 13.8651 80.9834 17.1175C81.3749 20.3698 80.474 23.6459 78.4746 26.2407C76.4752 28.8356 73.5371 30.5419 70.2924 30.9925C67.0477 31.4431 63.7558 30.602 61.125 28.6502H61.1188ZM68.75 12.5002C67.0924 12.5002 65.5027 13.1586 64.3306 14.3307C63.1585 15.5028 62.5 17.0925 62.5 18.7502C62.5 20.4078 63.1585 21.9975 64.3306 23.1696C65.5027 24.3417 67.0924 25.0002 68.75 25.0002C70.4076 25.0002 71.9973 24.3417 73.1694 23.1696C74.3415 21.9975 75 20.4078 75 18.7502C75 17.0925 74.3415 15.5028 73.1694 14.3307C71.9973 13.1586 70.4076 12.5002 68.75 12.5002ZM15.625 37.5002H32.3125C31.625 39.4564 31.25 41.5627 31.25 43.7502H15.625C14.7962 43.7502 14.0013 44.0794 13.4153 44.6654C12.8292 45.2515 12.5 46.0463 12.5 46.8752C12.5 51.9814 14.5312 55.7689 17.7375 58.3439C19.2125 59.5314 20.9813 60.4877 22.9813 61.1877C21.5126 62.7488 20.3808 64.5954 19.6562 66.6127C17.5583 65.7699 15.5941 64.6267 13.825 63.2189C9.125 59.4376 6.25 53.8502 6.25 46.8752C6.25 44.3887 7.23772 42.0042 8.99587 40.246C10.754 38.4879 13.1386 37.5002 15.625 37.5002ZM39.175 37.5002C37.5174 40.3728 37.0688 43.7862 37.928 46.9896C38.7871 50.1929 40.8836 52.9238 43.7562 54.5814C46.6289 56.239 50.0423 56.6876 53.2457 55.8284C56.449 54.9693 59.1799 52.8728 60.8375 50.0002C62.4951 47.1275 62.9437 43.7141 62.0845 40.5107C61.2254 37.3074 59.1289 34.5765 56.2563 32.9189C53.3836 31.2613 49.9702 30.8127 46.7668 31.6719C43.5635 32.531 40.8326 34.6275 39.175 37.5002ZM48.6 37.6564C49.5157 37.4495 50.4662 37.451 51.3813 37.6607C52.2964 37.8703 53.1528 38.2829 53.8871 38.8678C54.6214 39.4527 55.215 40.1951 55.6239 41.0402C56.0329 41.8852 56.2469 42.8113 56.25 43.7502C56.2495 44.9261 55.9173 46.0781 55.2915 47.0737C54.6656 48.0693 53.7716 48.8681 52.7122 49.3784C51.6527 49.8887 50.4708 50.0898 49.3022 49.9585C48.1336 49.8272 47.0257 49.3689 46.1059 48.6362C45.1861 47.9035 44.4916 46.9262 44.1024 45.8165C43.7131 44.7069 43.6448 43.5099 43.9053 42.3631C44.1658 41.2164 44.7445 40.1664 45.5749 39.3338C46.4054 38.5012 47.4539 37.9198 48.6 37.6564ZM82.2625 58.3439C80.7875 59.5314 79.0188 60.4877 77.0188 61.1877C78.4852 62.7494 79.6149 64.5959 80.3375 66.6127C82.4625 65.7439 84.4313 64.6126 86.175 63.2189C90.875 59.4376 93.75 53.8502 93.75 46.8752C93.75 44.3887 92.7623 42.0042 91.0041 40.246C89.246 38.4879 86.8614 37.5002 84.375 37.5002H67.6875C68.375 39.4564 68.75 41.5627 68.75 43.7502H84.375C85.2038 43.7502 85.9987 44.0794 86.5847 44.6654C87.1708 45.2515 87.5 46.0463 87.5 46.8752C87.5 51.9814 85.4688 55.7689 82.2625 58.3439ZM65.625 62.5002C68.1114 62.5002 70.496 63.4879 72.2541 65.246C74.0123 67.0042 75 69.3887 75 71.8752C75 78.8502 72.1312 84.4377 67.425 88.2189C62.7938 91.9377 56.5812 93.7502 50 93.7502C43.4188 93.7502 37.2062 91.9377 32.575 88.2189C27.875 84.4377 25 78.8502 25 71.8752C24.9967 70.6431 25.2369 69.4225 25.7069 68.2836C26.1769 67.1447 26.8673 66.1099 27.7385 65.2387C28.6097 64.3675 29.6445 63.677 30.7834 63.2071C31.9224 62.7371 33.1429 62.4969 34.375 62.5002H65.625ZM65.625 68.7502H34.375C33.5462 68.7502 32.7513 69.0794 32.1653 69.6654C31.5792 70.2515 31.25 71.0463 31.25 71.8752C31.25 76.9814 33.2812 80.7689 36.4875 83.3439C39.775 85.9814 44.5 87.5002 50 87.5002C55.5 87.5002 60.225 85.9814 63.5125 83.3439C66.7188 80.7689 68.75 76.9814 68.75 71.8752C68.75 71.0463 68.4208 70.2515 67.8347 69.6654C67.2487 69.0794 66.4538 68.7502 65.625 68.7502Z" fill="#1DA0EC"/>
</svg>
