<svg width="18" height="17" viewBox="0 0 18 17" fill="none" xmlns="http://www.w3.org/2000/svg">
<path d="M9 1.59375C4.968 1.59375 1.6875 4.692 1.6875 8.5C1.6875 12.308 4.968 15.4062 9 15.4062C13.032 15.4062 16.3125 12.308 16.3125 8.5C16.3125 4.692 13.032 1.59375 9 1.59375ZM9 2.65625C12.4234 2.65625 15.1875 5.26681 15.1875 8.5C15.1875 11.7332 12.4234 14.3438 9 14.3438C5.57663 14.3438 2.8125 11.7332 2.8125 8.5C2.8125 5.26681 5.57663 2.65625 9 2.65625ZM8.94712 5.3125C7.07737 5.3125 5.57212 6.73413 5.57212 8.5C5.57212 10.2659 7.07737 11.6875 8.94712 11.6875C10.2966 11.6875 11.4503 10.9236 11.988 9.84459L10.9688 9.39675C10.6059 10.1246 9.84825 10.625 8.94712 10.625C7.66631 10.625 6.69712 9.70966 6.69712 8.5C6.69712 7.29034 7.66631 6.375 8.94712 6.375C9.84825 6.375 10.6065 6.87491 10.9688 7.60378L11.9886 7.15541C11.4497 6.07644 10.2966 5.3125 8.94656 5.3125H8.94712Z" fill="white"/>
</svg>
