<svg width="21" height="24" viewBox="0 0 21 24" fill="none" xmlns="http://www.w3.org/2000/svg">
<path d="M10.3717 18.6479C10.3712 17.5425 10.6292 16.4549 11.1216 15.4866C11.614 14.5183 12.3247 13.7007 13.1876 13.1101C14.0505 12.5196 15.0374 12.1752 16.0564 12.1091C17.0754 12.0431 18.0932 12.2575 19.0149 12.7324V6.47991C19.0149 5.45031 18.2371 4.60791 17.2863 4.60791H3.45716C2.50641 4.60791 1.72852 5.45031 1.72852 6.47991V17.7119C1.72852 18.7415 2.50641 19.5839 3.45716 19.5839H10.4409C10.3977 19.275 10.3717 18.9662 10.3717 18.6479ZM3.45716 6.47991L10.3717 11.1599L17.2863 6.47991V8.35191L10.3717 13.0319L3.45716 8.35191V6.47991ZM14.9872 21.4559L11.9275 18.1425L13.1462 16.8227L14.9786 18.807L18.6433 14.8384L19.8793 16.1582L14.9872 21.4559Z" fill="white"/>
</svg>
