<svg width="72" height="105" viewBox="0 0 72 105" fill="none" xmlns="http://www.w3.org/2000/svg">
<g clip-path="url(#clip0_806_232)">
<path fill-rule="evenodd" clip-rule="evenodd" d="M64.2035 24.5722C67.3037 24.2579 69.3847 25.5744 69.7584 27.6044C70.3105 30.5942 67.4056 32.7855 65.3162 34.3993C64.951 34.6796 64.5772 34.9514 64.2035 35.2062V24.5722ZM14.9403 10.5491C19.9006 10.3113 21.2002 15.5094 20.767 19.6458C20.5122 22.0835 19.8667 22.9753 18.7965 25.1157C17.5394 27.1457 16.2484 29.1248 15.0592 31.2057V76.6213C15.0595 77.977 15.3279 79.3193 15.8492 80.5708C16.3705 81.8177 17.1292 82.9514 18.083 83.9088C18.9866 84.8282 20.0557 85.5688 21.2341 86.0917L21.3615 86.1511C22.6131 86.6724 23.9554 86.9408 25.3111 86.941H51.9981C46.7915 91.8249 41.1772 95.1289 34.824 95.3158L28.2244 103.334C26.7975 104.642 25.1412 104.786 23.1282 103.334L3.99202 90.5254C2.0045 89.1834 0.0424683 87.8499 0 85.1319C0 83.2378 1.13815 81.3013 2.85387 79.3987C3.95764 77.5554 4.54445 75.4487 4.5526 73.3002C4.69699 68.909 2.5481 65.0699 2.23383 60.305C1.8686 54.9539 2.23383 47.7428 3.0832 39.4615L3.4739 28.2754C3.5791 27.2783 3.91971 26.3206 4.46766 25.481L14.3033 10.6256L14.9064 10.5491H14.9403ZM63.6175 46.817V43.8697C66.2167 44.0664 68.6448 45.241 70.4124 47.1568C72.9605 50.223 71.2617 54.6057 68.5098 56.7121C67.9328 57.1336 67.2572 57.3998 66.5478 57.4851L66.8111 57.536C69.4866 59.7868 70.7946 62.3095 70.285 64.7556C69.546 68.3569 63.7788 72.0772 60.3134 72.332C59.5614 72.4178 58.8005 72.2857 58.1214 71.9514C57.4422 71.6171 56.8735 71.0947 56.4828 70.4464C54.5123 67.3887 57.4935 64.1186 59.549 62.0886C60.7049 60.924 62.0634 59.9799 63.558 59.3027V57.0519C62.9295 56.8173 62.3656 56.4371 61.9123 55.9425C61.4591 55.4479 61.1295 54.853 60.9505 54.2065C60.3559 51.5055 62.0886 48.8895 63.6175 46.817ZM63.3202 73.2748L63.5495 72.0856C66.3439 71.8648 68.3994 72.8161 69.4441 75.3557C69.8943 77.9038 69.631 80.4519 67.2782 81.8958C65.0614 83.2378 60.3049 84.0872 58.0117 82.5753C55.5655 80.9615 55.8797 78.1841 57.7314 76.2136C59.2293 74.6761 61.1724 73.6481 63.2862 73.2748H63.3202ZM25.3366 1.86335e-05H53.8922C54.957 -0.00109752 56.0116 0.207668 56.9957 0.614379C57.9798 1.02109 58.874 1.61777 59.6274 2.37031C60.3807 3.12285 60.9783 4.01649 61.3861 5.00014C61.7938 5.98379 62.0037 7.03815 62.0037 8.10296V43.581C61.9949 43.677 61.9949 43.7737 62.0037 43.8697V46.2989C61.2274 47.3337 60.5613 48.4468 60.0162 49.6199C59.7167 50.286 59.4944 50.9842 59.3536 51.7009V8.83342H19.9091V10.5321C19.1733 9.79264 18.2521 9.26458 17.2421 9.00329V8.15392C17.232 7.08533 17.434 6.02535 17.8365 5.03539C18.239 4.04543 18.8339 3.14518 19.5867 2.38677C20.3396 1.62837 21.2355 1.0269 22.2225 0.617198C23.2095 0.207501 24.2679 -0.00227665 25.3366 1.86335e-05ZM39.6059 76.0097C40.2668 76.008 40.9134 76.2026 41.4636 76.5687C42.0138 76.9349 42.443 77.4561 42.6967 78.0664C42.9504 78.6767 43.0172 79.3485 42.8887 79.9968C42.7601 80.6451 42.4421 81.2407 41.9747 81.708C41.5074 82.1754 40.9118 82.4935 40.2635 82.622C39.6152 82.7505 38.9434 82.6837 38.3331 82.43C37.7228 82.1763 37.2015 81.7471 36.8354 81.1969C36.4693 80.6467 36.2747 80.0001 36.2764 79.3392C36.2753 78.9017 36.3606 78.4682 36.5276 78.0638C36.6945 77.6593 36.9397 77.2918 37.2491 76.9824C37.5585 76.673 37.926 76.4278 38.3304 76.2609C38.7349 76.0939 39.1684 76.0086 39.6059 76.0097ZM59.3112 54.4528V54.5548C59.5092 55.4527 59.9465 56.2804 60.5767 56.95C60.9584 57.365 61.3958 57.7251 61.8763 58.0202V58.3004C61.3972 58.5586 60.9322 58.8421 60.4833 59.1498C60.0671 59.4301 59.6764 59.7444 59.2857 60.0671V54.4528H59.3112ZM57.5105 73.4701C57.7174 73.5633 57.9302 73.6427 58.1475 73.7079C57.5657 74.1154 57.0277 74.5823 56.5422 75.1009C56.2282 75.4197 55.9439 75.7666 55.6929 76.1371C54.9726 77.1827 54.5956 78.4265 54.6142 79.696C54.6404 80.3677 54.8012 81.0274 55.0872 81.6358C55.3732 82.2442 55.7784 82.789 56.2789 83.2378C56.5417 83.4835 56.826 83.7053 57.1283 83.9003L57.2472 83.9768C56.1966 84.4553 55.0552 84.7015 53.9007 84.6987H25.3366C24.2729 84.6987 23.2196 84.4891 22.237 84.0818C21.2544 83.6744 20.3617 83.0774 19.6099 82.3249C18.8582 81.5724 18.2621 80.679 17.8558 79.696C17.4495 78.713 17.241 77.6595 17.2421 76.5958V30.9509L17.361 30.7301L19.9091 26.6106V73.4701H57.5105Z" fill="#1DA0EC"/>
</g>
<defs>
<clipPath id="clip0_806_232">
<rect width="71.627" height="104.37" fill="white"/>
</clipPath>
</defs>
</svg>
