<svg width="54" height="51" viewBox="0 0 54 51" fill="none" xmlns="http://www.w3.org/2000/svg">
<path d="M40.4816 5.14733C40.4822 4.83789 40.3855 4.53525 40.2038 4.27779C40.022 4.02032 39.7635 3.81962 39.4608 3.70113C39.1582 3.58263 38.8251 3.55169 38.5038 3.61221C38.1826 3.67273 37.8875 3.82199 37.6562 4.04108L31.0392 10.2911C30.8857 10.4365 30.764 10.609 30.6811 10.7988C30.5983 10.9886 30.5558 11.192 30.5562 11.3973V20.1255L28.1046 22.438C27.6142 22.315 27.1004 22.3001 26.6029 22.3943C26.1054 22.4884 25.6374 22.6892 25.235 22.9812C24.8326 23.2731 24.5065 23.6484 24.2818 24.0781C24.0572 24.5079 23.94 24.9806 23.9392 25.4598C23.9394 25.9046 24.0402 26.3441 24.2346 26.7491C24.4291 27.1542 24.7129 27.5153 25.067 27.8085C25.421 28.1016 25.8373 28.32 26.2879 28.449C26.7385 28.578 27.213 28.6147 27.6798 28.5566C28.1466 28.4985 28.5949 28.347 28.9948 28.1122C29.3946 27.8773 29.7368 27.5646 29.9984 27.1948C30.26 26.8251 30.4351 26.4068 30.5119 25.968C30.5887 25.5293 30.5654 25.0801 30.4437 24.6505L32.8953 22.3348H42.1358C42.3532 22.3352 42.5686 22.2951 42.7695 22.2168C42.9705 22.1385 43.1531 22.0236 43.307 21.8786L49.924 15.6286C50.1559 15.41 50.314 15.1314 50.378 14.8279C50.4421 14.5245 50.4094 14.2099 50.2839 13.924C50.1585 13.6382 49.946 13.3939 49.6734 13.2223C49.4008 13.0506 49.0804 12.9593 48.7528 12.9598H40.4816V5.14733ZM46.9133 22.8911C47.4826 26.7822 46.7437 30.744 44.8009 34.2171C42.858 37.6903 39.8094 40.4994 36.0854 42.2479C32.3613 43.9964 28.15 44.596 24.0457 43.962C19.9415 43.3281 16.1517 41.4926 13.2113 38.7148C10.2709 35.9369 8.32839 32.3569 7.65804 28.4801C6.98769 24.6034 7.62332 20.6256 9.47521 17.1085C11.3271 13.5913 14.3017 10.7123 17.9791 8.8779C21.6566 7.0435 25.8511 6.34634 29.9706 6.88483L28.7034 8.0817C28.2421 8.51693 27.876 9.03378 27.6263 9.60269C27.3765 10.1716 27.2478 10.7814 27.2477 11.3973C24.3031 11.3973 21.4246 12.2221 18.9763 13.7673C16.528 15.3125 14.6197 17.5088 13.4929 20.0783C12.366 22.6479 12.0712 25.4754 12.6456 28.2033C13.2201 30.9311 14.6381 33.4368 16.7202 35.4035C18.8023 37.3702 21.4552 38.7095 24.3432 39.2521C27.2312 39.7947 30.2247 39.5162 32.9451 38.4519C35.6656 37.3875 37.9908 35.5851 39.6267 33.2725C41.2627 30.96 42.1358 28.2411 42.1358 25.4598C43.4516 25.4587 44.713 24.9642 45.6428 24.0848L46.9133 22.8911ZM27.2477 14.5223C24.9575 14.5223 22.7187 15.1638 20.8144 16.3656C18.9101 17.5675 17.4259 19.2757 16.5495 21.2742C15.6731 23.2728 15.4437 25.472 15.8905 27.5936C16.3373 29.7153 17.4402 31.6642 19.0596 33.1938C20.6791 34.7234 22.7424 35.7651 24.9886 36.1872C27.2349 36.6092 29.5631 36.3926 31.679 35.5648C33.795 34.7369 35.6035 33.335 36.8758 31.5364C38.1482 29.7377 38.8274 27.6231 38.8274 25.4598H34.265L33.8514 25.8505C33.7719 27.051 33.3273 28.2044 32.5709 29.1721C31.8145 30.1399 30.7786 30.8809 29.5874 31.3063C28.3961 31.7317 27.1003 31.8233 25.8553 31.5702C24.6102 31.3172 23.469 30.7301 22.5685 29.8795C21.668 29.029 21.0465 27.951 20.7785 26.7751C20.5106 25.5991 20.6076 24.3751 21.058 23.2499C21.5084 22.1248 22.2929 21.1462 23.3175 20.4318C24.342 19.7174 25.5631 19.2975 26.8341 19.2223L27.2477 18.8317V14.5223Z" fill="#F8F8F8"/>
</svg>
