<svg width="100" height="80" viewBox="0 0 100 80" fill="none" xmlns="http://www.w3.org/2000/svg">
<path d="M81.125 19.9844L73.6875 12.5469C72.0415 10.9153 69.8176 9.99998 67.5 10H32.0625C29.75 10 27.5156 10.9219 25.875 12.5469L18.4375 19.9844H0V59.9375H10C12.75 59.9375 14.9688 57.7188 14.9844 54.9844H16.4062L29.625 66.9219C34.4531 70.8438 41.1563 70.9375 46.125 67.5156C48.0781 69.2031 50.1875 70 52.5469 70C55.3906 70 58.0625 68.8438 60.1719 66.25C63.625 67.6094 67.7031 66.6562 70.1719 63.625L74.2656 58.5781C75.1406 57.5 75.6875 56.2656 75.9688 54.9844H85.0156C85.0312 57.7188 87.2656 59.9375 90 59.9375H100V19.9844H81.125ZM7.5 54.9375C6.125 54.9375 5 53.8125 5 52.4375C5 51.0625 6.125 49.9375 7.5 49.9375C8.875 49.9375 10 51.0625 10 52.4375C10 53.8281 8.875 54.9375 7.5 54.9375ZM68.4375 53.8594L64.3594 58.8906C63.9219 59.4219 63.1406 59.5156 62.5938 59.0781L58.8594 56.0469L54.1719 61.75C53.2344 62.8906 51.8281 62.5 51.3594 62.125L45.6094 57.2031L43.1719 60.2031C41 62.875 37.0469 63.2812 34.5312 61.2344L19.3281 47.4844H15V27.4688H21.5469L31.1875 17.8437C31.5 17.7187 31.7656 17.6094 32.0781 17.4844H40.9375L34.8906 23.0312C30.2969 27.2344 30.0312 34.3281 34.2031 38.8594C36.5156 41.3906 43.7656 45.2969 50.0625 39.5469L51.3438 38.375L68.25 52.0938C68.7812 52.5312 68.8594 53.3281 68.4375 53.8594ZM85 47.4844H74.1875C73.8281 47.0469 73.4219 46.6406 72.9844 46.2812L56.9375 33.25L58.8906 31.4688C59.9062 30.5312 59.9844 28.9531 59.0469 27.9375L57.3438 26.1094C56.4062 25.0938 54.8281 25.0313 53.8125 25.9531L45.1875 33.8594C43.7031 35.2188 41.1719 35.3281 39.7812 33.8594C38.3281 32.3125 38.4531 29.9375 39.9688 28.5625L50.2188 19.1719C51.375 18.1094 52.875 17.5312 54.4375 17.5312L67.5156 17.5C67.8438 17.5 68.1562 17.625 68.375 17.8594L78.0156 27.4844H85V47.4844ZM92.5 54.9375C91.125 54.9375 90 53.8125 90 52.4375C90 51.0625 91.125 49.9375 92.5 49.9375C93.875 49.9375 95 51.0625 95 52.4375C95 53.8281 93.875 54.9375 92.5 54.9375Z" fill="#1DA0EC"/>
</svg>
