<svg width="24" height="23" viewBox="0 0 24 23" fill="none" xmlns="http://www.w3.org/2000/svg">
<path d="M20.1 5.96711H16.0605C16.1285 5.64715 16.1627 5.32181 16.1625 4.99572C16.1625 2.9179 14.5185 1.3877 11.85 1.3877C9.72586 1.3877 9.17798 3.49253 8.30119 4.80421C7.93861 5.34251 7.50459 5.81537 7.08942 6.24625L7.08328 6.25258L7.07723 6.259C6.35916 7.01686 5.98894 7.28542 5.6625 7.28542H5.53692C5.26753 7.07068 4.90242 6.9385 4.50005 6.9385H1.5C0.671578 6.9385 0 7.49765 0 8.18743V18.1789C0 18.8686 0.671578 19.4278 1.5 19.4278H4.5C4.90238 19.4278 5.26748 19.2956 5.53688 19.0809H5.66245C7.0072 19.0809 8.8095 20.8155 11.625 20.8155H12.6233C15.555 20.8155 17.2546 19.1391 17.308 16.8629C17.8931 16.0905 18.1748 15.0943 18.0573 14.14C18.2243 13.8368 18.3492 13.5153 18.429 13.1831H20.1C22.2298 13.1831 24 11.5533 24 9.57513C24 7.61938 22.214 5.96711 20.1 5.96711ZM20.1 11.1016H15.8332C16.4349 11.7377 16.5089 12.9587 15.6011 13.7491C16.1274 14.601 15.6802 15.7276 14.9953 16.0746C15.3011 17.7714 14.523 18.734 12.6234 18.734H11.625C9.49261 18.734 8.00578 17.1766 6 17.0134V9.34837C7.18308 9.21983 8.01403 8.42806 8.76914 7.63126C9.29766 7.08269 9.7875 6.53411 10.2128 5.90206C10.8916 4.88782 11.4378 3.46925 11.85 3.46925C12.9457 3.46925 13.9125 3.85086 13.9125 4.99572C13.9125 6.52219 12.675 7.29735 12.675 8.04866H20.1C20.9637 8.04866 21.75 8.76419 21.75 9.57513C21.75 10.398 20.9895 11.1016 20.1 11.1016ZM4.125 16.6524C4.125 17.2272 3.62133 17.6932 3 17.6932C2.37867 17.6932 1.875 17.2272 1.875 16.6524C1.875 16.0776 2.37867 15.6116 3 15.6116C3.62133 15.6116 4.125 16.0776 4.125 16.6524Z" fill="white"/>
</svg>
