<svg width="21" height="23" viewBox="0 0 21 23" fill="none" xmlns="http://www.w3.org/2000/svg">
<path d="M10.3717 1.85303C14.3612 1.85303 17.5949 5.355 17.5949 9.67531C17.5949 12.9807 15.4502 16.583 11.2163 20.5206C10.9808 20.7396 10.6807 20.8599 10.3703 20.8596C10.0599 20.8593 9.75997 20.7385 9.5249 20.519L9.24486 20.2559C5.19836 16.4209 3.14844 12.9069 3.14844 9.67531C3.14844 5.355 6.38223 1.85303 10.3717 1.85303ZM10.3717 6.66674C9.63487 6.66674 8.92823 6.98372 8.40723 7.54793C7.88622 8.11215 7.59352 8.87739 7.59352 9.67531C7.59352 10.4732 7.88622 11.2385 8.40723 11.8027C8.92823 12.3669 9.63487 12.6839 10.3717 12.6839C11.1085 12.6839 11.8151 12.3669 12.3362 11.8027C12.8572 11.2385 13.1499 10.4732 13.1499 9.67531C13.1499 8.87739 12.8572 8.11215 12.3362 7.54793C11.8151 6.98372 11.1085 6.66674 10.3717 6.66674Z" fill="white"/>
</svg>
