<svg width="84" height="77" viewBox="0 0 84 77" fill="none" xmlns="http://www.w3.org/2000/svg">
<path d="M15.5668 75.329C14.9686 75.8492 14.2343 76.188 13.4503 76.3054C12.6663 76.4229 11.865 76.3143 11.1405 75.9923C10.4161 75.6704 9.79851 75.1484 9.36034 74.4877C8.92217 73.827 8.68158 73.055 8.66683 72.2623V62.9165C6.45669 62.9165 4.33708 62.0385 2.77427 60.4757C1.21147 58.9129 0.333496 56.7933 0.333496 54.5832V25.4165C0.333496 23.2064 1.21147 21.0868 2.77427 19.5239C4.33708 17.9611 6.45669 17.0832 8.66683 17.0832H54.5002C56.7103 17.0832 58.8299 17.9611 60.3927 19.5239C61.9555 21.0868 62.8335 23.2064 62.8335 25.4165V54.5832C62.8335 56.7933 61.9555 58.9129 60.3927 60.4757C58.8299 62.0385 56.7103 62.9165 54.5002 62.9165H33.6793L15.5668 75.329ZM19.0835 62.4415C19.4632 62.4393 19.836 62.3404 20.1668 62.154L29.9793 55.329C30.6777 54.8434 31.5079 54.5831 32.3585 54.5832H50.3335C51.4386 54.5832 52.4984 54.1442 53.2798 53.3628C54.0612 52.5814 54.5002 51.5216 54.5002 50.4165V29.5832C54.5002 28.4781 54.0612 27.4183 53.2798 26.6369C52.4984 25.8555 51.4386 25.4165 50.3335 25.4165H12.8335C11.7284 25.4165 10.6686 25.8555 9.88722 26.6369C9.10582 27.4183 8.66683 28.4781 8.66683 29.5832V50.4165C8.66683 52.6665 10.4543 54.5082 12.8335 54.5832C14.5418 54.6498 15.7793 54.929 16.3502 55.5248C16.8835 56.0832 16.9127 57.0248 17.0002 58.8165C17.0127 59.079 17.0127 59.554 17.0002 60.3582C17.0002 60.9107 17.2197 61.4406 17.6104 61.8313C18.0011 62.222 18.531 62.4415 19.0835 62.4415ZM67.0002 42.1498C66.9868 42.6636 66.9868 43.1777 67.0002 43.6915V42.1498C67.0835 40.3582 67.1168 39.4165 67.6502 38.8582C68.221 38.2623 69.4585 37.9832 71.1668 37.9165C73.546 37.8415 75.3335 35.9998 75.3335 33.7498V12.9165C75.3335 11.8114 74.8945 10.7516 74.1131 9.97023C73.3317 9.18882 72.2719 8.74984 71.1668 8.74984H33.6668C32.5618 8.74984 31.502 9.18882 30.7206 9.97023C29.9392 10.7516 29.5002 11.8114 29.5002 12.9165H21.1668V8.74984C21.1668 6.5397 22.0448 4.42008 23.6076 2.85728C25.1704 1.29448 27.29 0.416504 29.5002 0.416504L75.3335 0.416504C77.5436 0.416504 79.6633 1.29448 81.2261 2.85728C82.7889 4.42008 83.6668 6.5397 83.6668 8.74984V37.9165C83.6668 40.1266 82.7889 42.2463 81.2261 43.8091C79.6633 45.3719 77.5436 46.2498 75.3335 46.2498V55.5957C75.3187 56.3883 75.0782 57.1603 74.64 57.821C74.2018 58.4817 73.5843 59.0037 72.8598 59.3257C72.1353 59.6477 71.3341 59.7563 70.55 59.6388C69.766 59.5213 69.0317 59.1825 68.4335 58.6623L67.0002 57.679V42.154V42.1498Z" fill="#1DA0EC"/>
</svg>
