<svg width="41" height="39" viewBox="0 0 41 39" fill="none" xmlns="http://www.w3.org/2000/svg">
<path d="M40.4238 1.89134C40.3304 1.47657 39.9013 1.06659 39.4658 0.977513C36.9389 0.459717 34.9605 0.459717 32.9906 0.459717C24.8888 0.459717 20.0304 4.59872 16.4031 10.0569H8.22427C6.94126 10.0581 5.43371 10.9472 4.85844 12.0426L0.978709 19.4514C0.858802 19.704 0.791725 19.9766 0.78125 20.2539C0.781437 20.7311 0.980007 21.1888 1.3333 21.5262C1.6866 21.8637 2.1657 22.0533 2.66528 22.0533H10.8124L9.04864 23.738C8.15662 24.5898 8.0287 26.1566 9.04864 27.1307L13.0437 30.9476C13.9192 31.7864 15.5673 31.934 16.5971 30.9476L18.3609 29.2629V37.0489C18.3611 37.5261 18.5597 37.9838 18.913 38.3212C19.2662 38.6587 19.7453 38.8483 20.2449 38.8483C20.5351 38.8381 20.8205 38.774 21.0852 38.6597L28.8336 34.9565C29.9817 34.4094 30.914 32.9696 30.914 31.743V23.9125C36.6115 20.4401 40.9622 15.7844 40.9622 8.08518C40.9696 6.19552 40.9696 4.30585 40.4238 1.89127V1.89134ZM30.9213 13.056C30.3004 13.0558 29.6935 12.8798 29.1774 12.5502C28.6613 12.2205 28.259 11.7521 28.0215 11.2041C27.784 10.656 27.722 10.053 27.8432 9.47132C27.9644 8.8896 28.2635 8.35527 28.7025 7.93592C29.1416 7.51656 29.701 7.231 30.3099 7.11533C30.9188 6.99967 31.55 7.05911 32.1236 7.28613C32.6971 7.51314 33.1874 7.89755 33.5323 8.39073C33.8772 8.88392 34.0613 9.46374 34.0613 10.0569C34.0608 10.8523 33.7298 11.615 33.141 12.1773C32.5522 12.7397 31.7538 13.0557 30.9213 13.056Z" fill="#F8F8F8"/>
</svg>
