<svg width="21" height="24" viewBox="0 0 21 24" fill="none" xmlns="http://www.w3.org/2000/svg">
<g clip-path="url(#clip0_700_346)">
<path d="M10.3719 0.680176C4.64364 0.680176 0 5.70891 0 11.9122C0 18.1154 4.64364 23.1442 10.3719 23.1442C16.1001 23.1442 20.7437 18.1154 20.7437 11.9122C20.7437 5.70891 16.1001 0.680176 10.3719 0.680176ZM6.64447 5.14171C6.85817 5.12807 7.05133 5.26639 7.19776 5.5119L8.61578 8.4241C8.76509 8.76918 8.68024 9.13868 8.45753 9.38524L7.80802 10.0886C7.76794 10.1481 7.74156 10.2151 7.74092 10.2888C7.99 11.3329 8.74555 12.296 9.41219 12.9583C10.0788 13.6206 10.7953 14.5173 11.7253 14.7298C11.8403 14.7645 11.9811 14.7769 12.0634 14.6941L12.818 13.8619C13.0784 13.6481 13.4552 13.5445 13.7333 13.7193H13.746L16.3048 15.355C16.6804 15.61 16.7193 16.1028 16.4504 16.4025L14.688 18.296C14.4277 18.585 14.082 18.6822 13.746 18.6826C12.2603 18.6344 10.8565 17.8448 9.70339 17.0332C7.8107 15.5421 6.07457 13.6927 4.98463 11.4583C4.56661 10.5214 4.07555 9.32595 4.12242 8.28018C4.1266 7.88676 4.22489 7.50133 4.48073 7.24775L6.24313 5.33919C6.38042 5.21268 6.51624 5.14991 6.64447 5.14171Z" fill="white"/>
</g>
<defs>
<clipPath id="clip0_700_346">
<rect width="20.7437" height="22.464" fill="white" transform="translate(0 0.680176)"/>
</clipPath>
</defs>
</svg>
