<svg width="105" height="105" viewBox="0 0 105 105" fill="none" xmlns="http://www.w3.org/2000/svg">
<path d="M13.0464 91.3238H21.7439V65.2313H13.0464V91.3238ZM54.1856 95.6725L41.4437 92.8893L28.7019 89.8887C27.9644 89.7449 27.3018 89.3443 26.8319 88.758C26.3459 88.1888 26.0832 87.4625 26.0926 86.7141V69.3191C26.1049 68.5745 26.3651 67.8553 26.8319 67.2752C27.3176 66.7072 27.9733 66.3108 28.7019 66.1445L49.4889 63.5787L70.3194 60.9695L70.9717 63.4048L71.624 65.7966C71.6356 66.5984 71.4085 67.3855 70.9717 68.058C70.5721 68.7612 69.9644 69.3233 69.2322 69.667L60.5347 71.8414L51.8372 74.0157L58.8822 76.8859L65.9707 79.7126L75.8423 76.9294L85.4531 73.9288C86.3071 73.7128 87.2117 73.8376 87.9753 74.2767C88.36 74.4844 88.6975 74.7692 88.9669 75.1135C89.2363 75.4577 89.4317 75.8538 89.5409 76.2771L90.3672 79.6256L91.2369 82.9307C91.4341 83.7572 91.3098 84.6277 90.889 85.366C90.4417 86.1108 89.7257 86.6556 88.8886 86.888L73.1026 91.2368L57.3167 95.5855C56.7969 95.652 56.2708 95.652 55.7511 95.5855C55.2376 95.7004 54.7086 95.7298 54.1856 95.6725ZM39.1389 17.395L30.4414 26.0925L21.7439 34.79L30.4414 43.4875L39.1389 52.185L42.183 49.1409L45.2271 46.0968L39.5738 40.4434L33.9204 34.79L39.5738 29.1366L45.2271 23.4833L42.183 20.4391L39.1389 17.395ZM65.2314 17.395L62.1873 20.4391L59.1431 23.4833L64.7965 29.1366L70.4499 34.79L64.7965 40.4434L59.1431 46.0968L62.1873 49.1409L65.2314 52.185L73.9289 43.4875L82.6264 34.79L73.9289 26.0925L65.2314 17.395Z" fill="white"/>
</svg>
