<svg width="53" height="50" viewBox="0 0 53 50" fill="none" xmlns="http://www.w3.org/2000/svg">
<g clip-path="url(#clip0_954_47)">
<path d="M52.9356 7.8125C52.9356 9.57129 51.4571 11.1914 48.9654 12.5C45.9568 14.0723 41.48 15.1855 36.3209 15.5176C35.9487 15.3516 35.5558 15.1855 35.1629 15.0293C31.079 13.418 25.6614 12.5 19.8509 12.5C18.9927 12.5 18.1553 12.5195 17.3178 12.5586L17.2041 12.5C14.7124 11.1914 13.2339 9.57129 13.2339 7.8125C13.2339 3.49805 22.0324 0 33.0848 0C44.0441 0 52.9356 3.49805 52.9356 7.8125ZM16.6147 15.7324C17.6693 15.6641 18.7446 15.625 19.8509 15.625C26.2817 15.625 31.9888 16.8262 35.6178 18.6914C38.1819 20.0098 39.7017 21.6504 39.7017 23.4375C39.7017 23.7402 39.6293 24.209 39.4846 24.5801C39.009 25.8691 37.6442 27.0508 35.8659 28.0566C35.8556 28.0566 35.8349 28.0664 35.8246 28.0762C35.7936 28.0957 35.7626 28.1055 35.7315 28.125C32.1129 30.0195 26.3437 31.25 19.8509 31.25C13.6888 31.25 8.174 30.1465 4.53261 28.4082C4.33927 28.3105 4.1511 28.1348 3.96914 28.125C1.47641 26.8164 0 25.1953 0 23.4375C0 20.0391 5.52412 17.1387 13.2339 16.0742C14.3195 15.918 15.4464 15.8008 16.6147 15.7324ZM40.5185 18.2227C43.4444 17.793 46.1222 17.1094 48.3968 16.2207C50.082 15.5566 51.6432 14.7363 52.9356 13.7305V17.1875C52.9356 19.0723 51.2297 20.8105 48.4071 22.1582C46.8873 22.8809 45.0573 23.4863 42.9895 23.9551C42.9998 23.7891 43.0102 23.6133 43.0102 23.4375C43.0102 21.2988 41.9142 19.541 40.5185 18.2227ZM39.7017 32.8125C39.7017 34.5703 38.2232 36.1914 35.7315 37.5C35.5454 37.5098 35.3593 37.6855 35.1732 37.7832C31.5236 39.5215 26.0129 40.625 19.8509 40.625C13.358 40.625 7.59088 39.3945 3.96914 37.5C1.47641 36.1914 0 34.5703 0 32.8125V29.3555C1.2872 30.3613 2.85563 31.1816 4.54192 31.8457C8.62685 33.457 14.0403 34.375 19.8509 34.375C25.6614 34.375 31.079 33.457 35.1629 31.8457C35.9693 31.5332 36.7448 31.1719 37.4788 30.7813C38.1095 30.4492 38.6988 30.0781 39.2571 29.6875C39.4122 29.5801 39.557 29.4629 39.7017 29.3555V32.8125ZM43.0102 27.1582C44.8815 26.6699 46.7839 26.2305 48.3968 25.5957C50.082 24.9316 51.6432 24.1113 52.9356 23.1055V26.5625C52.9356 27.5879 52.4187 28.6133 51.3951 29.5801C49.7098 31.1719 46.7426 32.4805 42.9895 33.3301C42.9998 33.1641 43.0102 32.9883 43.0102 32.8125V27.1582ZM19.8509 43.75C25.6614 43.75 31.079 42.832 35.1629 41.2207C36.8481 40.5566 38.4093 39.7363 39.7017 38.7305V42.1875C39.7017 46.5039 30.8102 50 19.8509 50C8.88739 50 0 46.5039 0 42.1875V38.7305C1.2872 39.7363 2.85563 40.5566 4.54192 41.2207C8.62685 42.832 14.0403 43.75 19.8509 43.75Z" fill="#F8F8F8"/>
</g>
<defs>
<clipPath id="clip0_954_47">
<rect width="52.9356" height="50" fill="white"/>
</clipPath>
</defs>
</svg>
