<svg width="416" height="84" viewBox="0 0 416 84" fill="none" xmlns="http://www.w3.org/2000/svg">
<path d="M319.465 70.2094C373.82 111.032 414.55 49.7315 415.554 34.1739C416.558 18.6162 415.554 0 415.554 0L2.65921 0C2.18115 22.7383 -3.07742 54.9175 2.65921 70.2094C8.39584 85.5013 66.479 20.0698 108.357 29.3868C139.324 36.2766 139.493 72.9579 170.886 77.9218C200.567 82.6148 243.885 54.9175 243.885 54.9175C243.885 54.9175 265.11 29.3868 319.465 70.2094Z" fill="url(#paint0_linear_711_475)"/>
<path d="M319.465 70.2094C373.82 111.032 414.55 49.7315 415.554 34.1739C416.558 18.6162 415.554 0 415.554 0L2.65921 0C2.18115 22.7383 -3.07742 54.9175 2.65921 70.2094C8.39584 85.5013 66.479 20.0698 108.357 29.3868C139.324 36.2766 139.493 72.9579 170.886 77.9218C200.567 82.6148 243.885 54.9175 243.885 54.9175C243.885 54.9175 265.11 29.3868 319.465 70.2094Z" fill="url(#paint1_linear_711_475)"/>
<defs>
<linearGradient id="paint0_linear_711_475" x1="332.868" y1="20.8767" x2="132.517" y2="21.4954" gradientUnits="userSpaceOnUse">
<stop stop-color="#ADC1C8"/>
<stop offset="1" stop-color="#ADC1C8" stop-opacity="0"/>
</linearGradient>
<linearGradient id="paint1_linear_711_475" x1="413" y1="35.6087" x2="0.00260152" y2="36.2815" gradientUnits="userSpaceOnUse">
<stop stop-color="#ADC1C8"/>
<stop offset="1" stop-color="#ADC1C8" stop-opacity="0"/>
</linearGradient>
</defs>
</svg>
