<svg width="53" height="50" viewBox="0 0 53 50" fill="none" xmlns="http://www.w3.org/2000/svg">
<path d="M42.8936 11.1356C42.451 9.71803 41.5324 8.47489 40.2764 7.59364C39.0204 6.7124 37.495 6.24085 35.9304 6.25013C34.117 6.25166 32.3699 6.89381 31.0324 8.05035C29.6949 9.20689 28.8638 10.7942 28.7024 12.5001H24.236C24.0725 10.7924 23.2386 9.20414 21.8982 8.04762C20.5579 6.89109 18.8081 6.24992 16.9927 6.25013C15.4301 6.24289 13.9074 6.71543 12.6539 7.59657C11.4004 8.47772 10.4839 9.71974 10.0426 11.1356L4.50426 28.5689C4.44359 28.763 4.4124 28.9644 4.41162 29.1668V31.2501C4.41512 34.0122 5.57845 36.6601 7.64637 38.6129C9.71429 40.5658 12.5179 41.664 15.4421 41.6668C17.5853 41.6633 19.681 41.0705 21.4734 39.9606C23.2657 38.8507 24.6771 37.2718 25.5351 35.4168H27.4011C28.2592 37.2718 29.6705 38.8507 31.4629 39.9606C33.2552 41.0705 35.351 41.6633 37.4942 41.6668C40.4187 41.664 43.2227 40.5655 45.2907 38.6122C47.3586 36.6589 48.5217 34.0104 48.5246 31.2481V29.1668C48.5246 28.9626 48.4915 28.7626 48.432 28.5689L42.8936 11.1356ZM15.4421 37.5001C13.6877 37.4979 12.0057 36.8388 10.765 35.6672C9.52422 34.4957 8.82584 32.9073 8.82292 31.2501C8.82292 31.0918 8.86042 30.9439 8.87145 30.7876C8.99212 29.2185 9.73594 27.7503 10.9539 26.6771C12.1719 25.6039 13.7742 25.0049 15.4399 25.0001C17.1948 25.0001 18.8778 25.6586 20.1188 26.8307C21.3597 28.0028 22.0568 29.5925 22.0568 31.2501V31.2689C22.0493 32.9222 21.3494 34.5055 20.11 35.673C18.8706 36.8405 17.1925 37.4974 15.4421 37.5001ZM37.4942 37.5001C35.7438 37.4974 34.0656 36.8405 32.8263 35.673C31.5869 34.5055 30.887 32.9222 30.8794 31.2689V31.2501C30.8793 30.4294 31.0503 29.6166 31.3827 28.8583C31.7151 28.0999 32.2024 27.4109 32.8167 26.8304C34.0574 25.6581 35.7403 24.9994 37.4953 24.9991C39.2502 24.9988 40.9334 25.657 42.1745 26.8289C43.4156 28.0008 44.113 29.5904 44.1133 31.2481C44.111 32.9055 43.4129 34.4945 42.172 35.6665C40.9312 36.8385 39.249 37.4979 37.4942 37.5001Z" fill="#F8F8F8"/>
</svg>
