<svg width="23" height="23" viewBox="0 0 23 23" fill="none" xmlns="http://www.w3.org/2000/svg">
<g clip-path="url(#clip0_1080_6)">
<path fill-rule="evenodd" clip-rule="evenodd" d="M16.6894 13.7828C16.4038 13.64 15.0037 12.9519 14.743 12.8561C14.4823 12.7612 14.2926 12.7142 14.1019 12.9998C13.9121 13.2835 13.3668 13.9256 13.201 14.1153C13.0343 14.306 12.8685 14.329 12.5839 14.1872C12.2992 14.0435 11.3812 13.7435 10.2935 12.7737C9.44725 12.0185 8.87513 11.086 8.70933 10.8005C8.54354 10.5158 8.69113 10.3615 8.83392 10.2197C8.96233 10.0922 9.11854 9.88716 9.26133 9.72137C9.40412 9.55462 9.45108 9.43579 9.54596 9.24508C9.64179 9.05533 9.59387 8.88954 9.522 8.74675C9.45108 8.60396 8.88183 7.20191 8.64417 6.63171C8.41321 6.07683 8.17842 6.15254 8.004 6.14296C7.83725 6.13529 7.6475 6.13337 7.45775 6.13337C7.268 6.13337 6.95942 6.20429 6.69875 6.48987C6.43712 6.7745 5.70208 7.46354 5.70208 8.86558C5.70208 10.2667 6.72175 11.6208 6.86454 11.8115C7.00733 12.0012 8.87225 14.8782 11.729 16.1115C12.4095 16.4048 12.9394 16.5802 13.3525 16.7105C14.0348 16.928 14.6558 16.8974 15.1465 16.8236C15.6927 16.7421 16.8312 16.1345 17.0689 15.4695C17.3056 14.8044 17.3056 14.2342 17.2347 14.1153C17.1637 13.9965 16.974 13.9256 16.6884 13.7828H16.6894ZM11.4933 20.8773H11.4895C9.79266 20.8776 8.12702 20.4215 6.66712 19.5567L6.32212 19.3517L2.73604 20.2927L3.69342 16.7967L3.46821 16.4383C2.51959 14.9283 2.01757 13.1807 2.02017 11.3975C2.02208 6.17458 6.27133 1.92533 11.4971 1.92533C14.0271 1.92533 16.4057 2.91241 18.194 4.70258C19.076 5.58097 19.7751 6.62554 20.2508 7.77586C20.7265 8.92618 20.9694 10.1594 20.9655 11.4042C20.9635 16.6271 16.7143 20.8773 11.4933 20.8773V20.8773ZM19.5548 3.34271C18.4989 2.27984 17.2426 1.4371 15.8586 0.863306C14.4746 0.289517 12.9905 -0.0039064 11.4923 3.92702e-05C5.21142 3.92702e-05 0.09775 5.11275 0.0958333 11.3965C0.0929229 13.3963 0.617526 15.3615 1.61671 17.0938L0 23L6.04133 21.415C7.71255 22.3255 9.58534 22.8026 11.4885 22.8026H11.4933C17.7742 22.8026 22.8879 17.6899 22.8898 11.4052C22.8944 9.90755 22.6021 8.42389 22.0296 7.03999C21.4572 5.65609 20.616 4.39943 19.5548 3.34271" fill="white"/>
</g>
<defs>
<clipPath id="clip0_1080_6">
<rect width="23" height="23" fill="white"/>
</clipPath>
</defs>
</svg>
