<svg width="123" height="105" viewBox="0 0 123 105" fill="none" xmlns="http://www.w3.org/2000/svg">
<g clip-path="url(#clip0_805_224)">
<path fill-rule="evenodd" clip-rule="evenodd" d="M11.68 0H111.2C114.295 0.00791977 117.262 1.24103 119.45 3.42974C121.639 5.61845 122.872 8.58471 122.88 11.68V65.29C122.88 68.3905 121.65 71.3644 119.461 73.5596C117.271 75.7548 114.3 76.9921 111.2 77H87.54C87.8211 76.2564 88.0516 75.4947 88.23 74.72C88.4581 73.7611 88.6284 72.7893 88.74 71.81H109.48C111.537 71.7941 113.504 70.963 114.95 69.4989C116.395 68.0349 117.201 66.0573 117.19 64V13.42C117.182 11.3706 116.364 9.40751 114.914 7.95928C113.464 6.51105 111.499 5.69527 109.45 5.69H12.55C8.29 5.69 5.69 9.17 5.69 13.42V64C5.69527 66.0494 6.51105 68.0136 7.95928 69.4637C9.40751 70.9138 11.3706 71.7321 13.42 71.74H15.82C16.3364 71.7834 16.8157 72.0256 17.1571 72.4154C17.4984 72.8053 17.6751 73.3124 17.65 73.83L17.47 83.83L30.19 72.29C30.5617 71.9266 31.0602 71.7222 31.58 71.72H36V71.82C36.5182 73.5668 37.2433 75.2454 38.16 76.82H33.6L15.87 92.21C15.5718 92.4458 15.2126 92.5918 14.8345 92.6308C14.4564 92.6698 14.0749 92.6002 13.7349 92.4302C13.3949 92.2602 13.1104 91.9968 12.9147 91.6709C12.719 91.345 12.6203 90.97 12.63 90.59L11.83 77H11.68C8.57871 76.9947 5.60639 75.7583 3.41625 73.5625C1.22611 71.3668 -0.00265092 68.3913 4.29429e-06 65.29V11.68C0.00792406 8.58471 1.24103 5.61845 3.42975 3.42974C5.61846 1.24103 8.58471 0.00791977 11.68 0ZM30.36 46.38C29.6045 46.4284 28.8463 46.3438 28.12 46.13C27.9416 46.0474 27.7826 45.9281 27.6534 45.7799C27.5242 45.6317 27.4276 45.458 27.37 45.27L19.49 23.53C19.49 23.07 20.34 22.53 22.04 21.96C23.74 21.39 25.4351 21.0699 27.19 21.07C29.42 21.07 30.61 21.77 30.75 23.17L32 34.47H32.5L33.5 23.17C33.62 21.77 35.2267 21.07 38.32 21.07C39.1437 20.9848 39.9738 21.1522 40.7 21.55C40.8982 21.6979 41.0617 21.8873 41.1791 22.1049C41.2966 22.3225 41.3651 22.5632 41.38 22.81L42.56 34.47H43L43.92 23.17C44 22.48 44.81 21.96 46.37 21.6C47.8881 21.2473 49.4415 21.0695 51 21.07C52.0909 20.9613 53.1885 21.1955 54.14 21.74C54.3827 21.8972 54.5864 22.1077 54.7354 22.3555C54.8844 22.6033 54.9749 22.8819 55 23.17L47.37 45.27C47.11 46.01 45.35 46.38 42.09 46.38C41.4134 46.4284 40.7339 46.3435 40.09 46.13C39.922 46.0432 39.7745 45.9216 39.6573 45.7733C39.54 45.625 39.4557 45.4534 39.41 45.27L37.56 39.07H37.13L35.24 45.27C35.0333 46.01 33.3933 46.38 30.32 46.38H30.36ZM68.59 45.52V35.61C68.623 34.3128 68.5494 33.0151 68.37 31.73C68.23 30.92 67.89 30.51 67.37 30.51C66.85 30.51 66.66 30.83 66.66 31.51V45.51C66.66 45.77 65.97 45.98 64.59 46.14C63.1819 46.2933 61.7665 46.3701 60.35 46.37C59.4286 46.4162 58.505 46.3491 57.6 46.17C57.2 46.0567 57 45.84 57 45.52V20.82C57 20.32 57.69 19.82 59.07 19.32C60.4649 18.8174 61.9373 18.5635 63.42 18.57C65.01 18.57 66.02 18.87 66.42 19.46C66.5555 19.6345 66.6293 19.8491 66.63 20.07V25.31L66.24 27.77H66.49C66.8965 27.2073 67.4359 26.7538 68.06 26.45C69.3982 25.7364 70.8935 25.3686 72.41 25.38C74.67 25.38 76.19 26.1 76.99 27.54C77.79 28.98 78.18 31.31 78.18 34.54V45.54C78.18 45.8 77.49 46.01 76.1 46.17C74.6918 46.3225 73.2764 46.3993 71.86 46.4C70.9452 46.4461 70.0283 46.3789 69.13 46.2C68.75 46.0667 68.56 45.8467 68.56 45.54L68.59 45.52ZM92.09 46.7C90.5442 46.7209 89.0011 46.5665 87.49 46.24C86.2247 45.9385 85.036 45.3765 84 44.59C81.84 43.03 80.75 40.1 80.75 35.83C80.75 32.0233 81.8567 29.3 84.07 27.66C86.4216 26.0583 89.2274 25.2586 92.07 25.38C93.273 25.3702 94.4755 25.437 95.67 25.58C96.7011 25.7284 97.7092 26.0073 98.67 26.41C99.6304 26.7867 100.487 27.3865 101.17 28.16C101.88 29.0663 102.406 30.1023 102.72 31.21C103.149 32.7116 103.351 34.2687 103.32 35.83C103.32 39.4367 102.3 42.15 100.26 43.97C97.9502 45.8764 95.0111 46.8501 92.02 46.7H92.09ZM90.84 39.7C90.8927 40.2433 91.0707 40.7671 91.36 41.23C91.5634 41.3914 91.8154 41.4793 92.075 41.4793C92.3346 41.4793 92.5867 41.3914 92.79 41.23C93.0694 40.7647 93.2372 40.241 93.28 39.7C93.4566 38.6327 93.5369 37.5517 93.52 36.47C93.52 35.18 93.52 34.18 93.43 33.47C93.394 32.9223 93.3205 32.3777 93.21 31.84C93.1555 31.5241 93.04 31.2218 92.87 30.95C92.7939 30.8141 92.6839 30.7003 92.5507 30.6197C92.4175 30.5391 92.2657 30.4944 92.11 30.49C91.9765 30.4839 91.843 30.5047 91.7177 30.5511C91.5923 30.5974 91.4775 30.6685 91.38 30.76C91.0764 31.2286 90.8911 31.764 90.84 32.32C90.6507 33.5405 90.5671 34.7751 90.59 36.01C90.5662 37.2416 90.6499 38.4729 90.84 39.69V39.7Z" fill="#1DA0EC"/>
<path d="M47.65 73.77C46.39 73.77 45.29 72.27 44.37 69.27C43.482 66.4786 43.0202 63.5692 43 60.64C43 60.0067 43.7 59.2967 45.1 58.51C47.1095 57.5116 49.251 56.8045 51.46 56.41C54.5124 55.7777 57.6229 55.4693 60.74 55.49C73.6933 55.49 80.1667 60.0033 80.16 69.03C80.2221 71.3541 79.6739 73.6538 78.57 75.7C77.6879 77.3849 76.3684 78.8011 74.75 79.8C72.222 81.3177 69.3636 82.1996 66.42 82.37L64.87 82.43C64.9089 83.2283 65.0194 84.0214 65.2 84.8C65.4107 85.7358 65.5246 86.6909 65.54 87.65C65.54 88.37 64.31 88.92 61.85 89.31C59.7373 89.6601 57.6013 89.8506 55.46 89.88C52.7 89.88 50.9967 89.2133 50.35 87.88C49.7033 86.5467 49.37 83.68 49.35 79.28C49.35 78.2467 51.2933 77.48 55.18 76.98C56.5941 76.7759 57.9537 76.2932 59.18 75.56C59.7269 75.2748 60.1839 74.8433 60.5 74.3136C60.816 73.7839 60.9788 73.1768 60.97 72.56C60.97 71.3 59.97 70.67 57.92 70.67C55.7026 70.7158 53.5219 71.2448 51.53 72.22C50.31 72.8695 49.0266 73.3922 47.7 73.78L47.65 73.77ZM58.28 92.18C60.672 92.0652 63.0603 92.4713 65.28 93.37C66.9 94.16 67.72 95.79 67.72 98.27C67.72 102.343 64.56 104.377 58.24 104.37C51.92 104.363 48.76 102.33 48.76 98.27C48.76 94.21 51.92 92.18 58.24 92.18H58.28Z" fill="#1DA0EC"/>
</g>
<defs>
<clipPath id="clip0_805_224">
<rect width="122.88" height="104.37" fill="white"/>
</clipPath>
</defs>
</svg>
