<svg width="32" height="32" viewBox="0 0 32 32" fill="none" xmlns="http://www.w3.org/2000/svg">
<g clip-path="url(#clip0_700_334)">
<path d="M32.0001 16.099C32.0001 7.20702 24.8361 -0.000976562 16.0001 -0.000976562C7.16009 0.00102344 -0.00390625 7.20702 -0.00390625 16.101C-0.00390625 24.135 5.84809 30.795 13.4961 32.003V20.753H9.43609V16.101H13.5001V12.551C13.5001 8.51702 15.8901 6.28902 19.5441 6.28902C21.2961 6.28902 23.1261 6.60302 23.1261 6.60302V10.563H21.1081C19.1221 10.563 18.5021 11.805 18.5021 13.079V16.099H22.9381L22.2301 20.751H18.5001V32.001C26.1481 30.793 32.0001 24.133 32.0001 16.099Z" fill="white"/>
</g>
<defs>
<clipPath id="clip0_700_334">
<rect width="32" height="32" fill="white"/>
</clipPath>
</defs>
</svg>
