<svg width="32" height="32" viewBox="0 0 32 32" fill="none" xmlns="http://www.w3.org/2000/svg">
<path d="M20.8001 16.0001C20.8001 17.2732 20.2944 18.4941 19.3942 19.3943C18.4941 20.2944 17.2732 20.8001 16.0001 20.8001C14.7271 20.8001 13.5062 20.2944 12.606 19.3943C11.7058 18.4941 11.2001 17.2732 11.2001 16.0001C11.2001 15.7265 11.2289 15.4593 11.2785 15.2001H9.60014V21.5953C9.60014 22.0401 9.96014 22.4001 10.4049 22.4001H21.5969C21.8101 22.3997 22.0144 22.3147 22.165 22.1639C22.3156 22.013 22.4001 21.8085 22.4001 21.5953V15.2001H20.7217C20.7713 15.4593 20.8001 15.7265 20.8001 16.0001V16.0001ZM16.0001 19.2001C16.4205 19.2 16.8367 19.1171 17.225 18.9562C17.6133 18.7952 17.9661 18.5594 18.2632 18.2621C18.5604 17.9648 18.796 17.6119 18.9568 17.2235C19.1176 16.8351 19.2002 16.4189 19.2001 15.9985C19.2 15.5782 19.1171 15.162 18.9562 14.7737C18.7952 14.3854 18.5594 14.0326 18.2621 13.7355C17.9648 13.4383 17.6119 13.2026 17.2235 13.0419C16.8351 12.8811 16.4189 12.7984 15.9985 12.7985C15.1496 12.7987 14.3356 13.1362 13.7355 13.7366C13.1353 14.337 12.7983 15.1512 12.7985 16.0001C12.7987 16.849 13.1362 17.6631 13.7366 18.2632C14.337 18.8633 15.1512 19.2003 16.0001 19.2001V19.2001ZM19.8401 12.6401H21.7585C21.886 12.6401 22.0082 12.5896 22.0985 12.4996C22.1888 12.4097 22.2397 12.2876 22.2401 12.1601V10.2417C22.2401 10.114 22.1894 9.99151 22.0991 9.90119C22.0088 9.81088 21.8863 9.76014 21.7585 9.76014H19.8401C19.7124 9.76014 19.5899 9.81088 19.4996 9.90119C19.4093 9.99151 19.3585 10.114 19.3585 10.2417V12.1601C19.3601 12.4241 19.5761 12.6401 19.8401 12.6401V12.6401ZM16.0001 0.640137C11.9264 0.640137 8.01953 2.25842 5.13898 5.13898C2.25842 8.01954 0.640137 11.9264 0.640137 16.0001C0.640137 20.0739 2.25842 23.9807 5.13898 26.8613C8.01953 29.7419 11.9264 31.3601 16.0001 31.3601C18.0172 31.3601 20.0146 30.9628 21.8782 30.1909C23.7417 29.419 25.435 28.2876 26.8613 26.8613C28.2876 25.435 29.419 23.7417 30.1909 21.8782C30.9628 20.0146 31.3601 18.0172 31.3601 16.0001C31.3601 13.983 30.9628 11.9857 30.1909 10.1221C29.419 8.25856 28.2876 6.56528 26.8613 5.13898C25.435 3.71267 23.7417 2.58126 21.8782 1.80935C20.0146 1.03743 18.0172 0.640137 16.0001 0.640137V0.640137ZM24.0001 22.2225C24.0001 23.2001 23.2001 24.0001 22.2225 24.0001H9.77774C8.80014 24.0001 8.00014 23.2001 8.00014 22.2225V9.77774C8.00014 8.80014 8.80014 8.00014 9.77774 8.00014H22.2225C23.2001 8.00014 24.0001 8.80014 24.0001 9.77774V22.2225V22.2225Z" fill="white"/>
</svg>
