<svg width="32" height="32" viewBox="0 0 32 32" fill="none" xmlns="http://www.w3.org/2000/svg">
<path d="M16.0001 0.640137C7.51694 0.640137 0.640137 7.51694 0.640137 16.0001C0.640137 24.4833 7.51694 31.3601 16.0001 31.3601C24.4833 31.3601 31.3601 24.4833 31.3601 16.0001C31.3601 7.51694 24.4833 0.640137 16.0001 0.640137ZM22.2481 13.2225C22.2545 13.3537 22.2561 13.4849 22.2561 13.6129C22.2561 17.6129 19.2145 22.2225 13.6497 22.2225C12.0054 22.2253 10.3953 21.753 9.01294 20.8625C9.24814 20.8913 9.48974 20.9025 9.73454 20.9025C11.1521 20.9025 12.4561 20.4209 13.4913 19.6081C12.8605 19.5957 12.2492 19.3869 11.7427 19.0106C11.2362 18.6343 10.8597 18.1093 10.6657 17.5089C11.1188 17.5951 11.5855 17.577 12.0305 17.4561C11.3458 17.3177 10.7301 16.9467 10.2877 16.406C9.84529 15.8653 9.60351 15.1883 9.60334 14.4897V14.4529C10.0113 14.6785 10.4785 14.8161 10.9745 14.8321C10.3326 14.4048 9.87819 13.7484 9.70421 12.9971C9.53022 12.2459 9.64982 11.4565 10.0385 10.7905C10.7985 11.7249 11.7462 12.4893 12.8202 13.0342C13.8943 13.5791 15.0709 13.8924 16.2737 13.9537C16.1208 13.3046 16.1866 12.6232 16.461 12.0153C16.7353 11.4075 17.2027 10.9073 17.7906 10.5926C18.3786 10.2778 19.054 10.1661 19.712 10.2748C20.3699 10.3835 20.9735 10.7066 21.4289 11.1937C22.106 11.0598 22.7553 10.8114 23.3489 10.4593C23.1233 11.1604 22.6508 11.7556 22.0193 12.1345C22.6191 12.0623 23.2047 11.9011 23.7569 11.6561C23.3513 12.264 22.8404 12.7944 22.2481 13.2225Z" fill="white"/>
</svg>
